<svg xmlns="http://www.w3.org/2000/svg" width="21.5" height="21.5" viewBox="0 0 21.5 21.5">
  <g id="Group_18" data-name="Group 18" transform="translate(1622.75 -2333.25)">
    <path id="Vector" d="M7,20h6c5,0,7-2,7-7V7c0-5-2-7-7-7H7C2,0,0,2,0,7v6C0,18,2,20,7,20Z" transform="translate(-1622 2334)" fill="none" stroke="#fff" stroke-linecap="round" stroke-linejoin="round" stroke-width="1.5"/>
    <path id="Vector-2" data-name="Vector" d="M0,0A2.583,2.583,0,0,0,3.64,0" transform="translate(-1617 2340.25)" fill="none" stroke="#fff" stroke-linecap="round" stroke-linejoin="round" stroke-width="1.5"/>
    <path id="Vector-3" data-name="Vector" d="M0,0A2.583,2.583,0,0,0,3.64,0" transform="translate(-1610.64 2340.25)" fill="none" stroke="#fff" stroke-linecap="round" stroke-linejoin="round" stroke-width="1.5"/>
    <path id="Vector-4" data-name="Vector" d="M.9,0H8.1A.9.9,0,0,1,9,.9a4.5,4.5,0,0,1-9,0A.9.9,0,0,1,.9,0Z" transform="translate(-1616.5 2345)" fill="none" stroke="#fff" stroke-linecap="round" stroke-linejoin="round" stroke-width="1.5"/>
  </g>
</svg>
