<svg xmlns="http://www.w3.org/2000/svg" width="14.215" height="15.603" viewBox="0 0 14.215 15.603">
  <g id="Group_60" data-name="Group 60" transform="translate(-174.41 -701.472)">
    <path id="Vector" d="M0,0V3.818" transform="translate(181.521 706.182)" fill="none" stroke="#8343F3" stroke-linecap="round" stroke-linejoin="round" stroke-width="1"/>
    <path id="Vector-2" data-name="Vector" d="M13.215,4.786V9.76a2.308,2.308,0,0,1-1.142,1.986L7.753,14.24a2.3,2.3,0,0,1-2.291,0l-4.32-2.495A2.291,2.291,0,0,1,0,9.76V4.786A2.308,2.308,0,0,1,1.142,2.8L5.462.305a2.3,2.3,0,0,1,2.291,0L12.073,2.8A2.3,2.3,0,0,1,13.215,4.786Z" transform="translate(174.91 702)" fill="none" stroke="#8343F3" stroke-linecap="round" stroke-linejoin="round" stroke-width="1"/>
    <path id="Vector-3" data-name="Vector" d="M0,0V.073" transform="translate(181.521 712.328)" fill="none" stroke="#8343F3" stroke-linecap="round" stroke-linejoin="round" stroke-width="1"/>
  </g>
</svg>
