<svg xmlns="http://www.w3.org/2000/svg" width="14.487" height="14.129" viewBox="0 0 14.487 14.129">
  <path id="Icon_simple-github" data-name="Icon simple-github" d="M7.244.445A7.244,7.244,0,0,0,4.953,14.562c.362.068.495-.156.495-.348,0-.172-.006-.628-.009-1.231C3.424,13.419,3,12.01,3,12.01a1.92,1.92,0,0,0-.806-1.059c-.656-.449.051-.44.051-.44a1.519,1.519,0,0,1,1.109.746,1.544,1.544,0,0,0,2.11.6,1.544,1.544,0,0,1,.459-.969c-1.609-.181-3.3-.8-3.3-3.58a2.8,2.8,0,0,1,.745-1.944A2.575,2.575,0,0,1,3.431,3.45s.607-.194,1.992.742a6.829,6.829,0,0,1,3.622,0c1.376-.937,1.983-.742,1.983-.742A2.647,2.647,0,0,1,11.1,5.367a2.806,2.806,0,0,1,.742,1.944c0,2.783-1.693,3.4-3.3,3.574a1.734,1.734,0,0,1,.489,1.34c0,.969-.009,1.748-.009,1.984,0,.19.127.417.5.344A7.235,7.235,0,0,0,7.244.445" transform="translate(0 -0.445)" fill="#9a9ba0"/>
</svg>
