<svg xmlns="http://www.w3.org/2000/svg" width="14.133" height="14.13" viewBox="0 0 14.133 14.13">
  <path id="Icon_awesome-instagram" data-name="Icon awesome-instagram" d="M7.063,5.68A3.623,3.623,0,1,0,10.685,9.3,3.617,3.617,0,0,0,7.063,5.68Zm0,5.978A2.355,2.355,0,1,1,9.418,9.3a2.359,2.359,0,0,1-2.355,2.355Zm4.616-6.126a.845.845,0,1,1-.845-.845A.843.843,0,0,1,11.679,5.532Zm2.4.858a4.182,4.182,0,0,0-1.141-2.961A4.209,4.209,0,0,0,9.976,2.287c-1.167-.066-4.663-.066-5.83,0A4.2,4.2,0,0,0,1.186,3.426,4.2,4.2,0,0,0,.044,6.386c-.066,1.167-.066,4.663,0,5.83a4.182,4.182,0,0,0,1.141,2.961,4.214,4.214,0,0,0,2.961,1.141c1.167.066,4.663.066,5.83,0a4.182,4.182,0,0,0,2.961-1.141,4.209,4.209,0,0,0,1.141-2.961c.066-1.167.066-4.66,0-5.827Zm-1.507,7.078a2.384,2.384,0,0,1-1.343,1.343,15.572,15.572,0,0,1-4.165.284A15.693,15.693,0,0,1,2.9,14.811a2.384,2.384,0,0,1-1.343-1.343A15.572,15.572,0,0,1,1.271,9.3a15.693,15.693,0,0,1,.284-4.165A2.384,2.384,0,0,1,2.9,3.794a15.572,15.572,0,0,1,4.165-.284,15.693,15.693,0,0,1,4.165.284,2.384,2.384,0,0,1,1.343,1.343A15.572,15.572,0,0,1,12.855,9.3,15.563,15.563,0,0,1,12.571,13.468Z" transform="translate(0.005 -2.237)" fill="#9a9ba0"/>
</svg>
