<svg xmlns="http://www.w3.org/2000/svg" width="35.301" height="35.29" viewBox="0 0 35.301 35.29">
  <path id="Path_1" data-name="Path 1" d="M1065.108,1017.966c-1.242,6.4-6.514,11.019-12.729,12.429-6.017,1.366-12.761-.337-16.614-5.419a13.559,13.559,0,0,1-1.9-12.4,17.309,17.309,0,0,1,9.953-10.541,18.217,18.217,0,0,1,20.634,4.98,17.812,17.812,0,0,1-17.156,28.667,17.019,17.019,0,0,1-12.209-9.13.022.022,0,0,1,0-.022c.007-.01.013-.01.018,0a14.978,14.978,0,0,0,11.57,7.461,17.164,17.164,0,0,0,13.512-4.188,14.54,14.54,0,0,0,4.928-11.839c0-.02,0-.02-.008,0m-13.246-15.017a14.917,14.917,0,0,1,8.059,1.563c.033.017.034.015,0-.006a15.658,15.658,0,0,0-14.934-1.247c-4.488,2.033-7.454,6.051-7.209,11.087q.013.28.107,1.088,0,.028.005,0a11.53,11.53,0,0,1,1.511-4.767,16.275,16.275,0,0,1,12.458-7.718m-9.92,9.8a.023.023,0,0,1,0,.018,7.261,7.261,0,0,0,.908,7.063,9.659,9.659,0,0,0,7.874,3.82,10.8,10.8,0,0,0,9.833-6.424,9.175,9.175,0,0,0-1.359-9.315c-3.313-3.85-9.378-4.155-13.557-1.6-.034.021-.032.026.007.015a12.217,12.217,0,0,1,11.035,2.3,9.071,9.071,0,0,1,3.277,5.77.113.113,0,0,1,0,.067c-.01.023-.017.022-.022,0a7.371,7.371,0,0,0-.944-2.53c-2.24-3.686-6.847-5.28-10.99-4.871-4.41.434-8.509,3.328-9.521,7.812a5.979,5.979,0,0,0-.076,2.768,14.6,14.6,0,0,0,8.266,8.844,13.03,13.03,0,0,0,11.894-.8,12.662,12.662,0,0,0,6.21-8.711,3.95,3.95,0,0,0,.035-1.383,9.472,9.472,0,0,0-1.82-3.93c-.011-.015-.015-.013-.011.005,1.939,8.582-6.813,15.171-14.72,12.982-5.2-1.44-8.728-6.575-6.33-11.9,0-.01.009-.01.014,0m25.109,6.356a7.405,7.405,0,0,1,.038,1.05q-.025.3.021.012c0-.007,0-.016,0-.026a12.611,12.611,0,0,0-5.874-12.39.011.011,0,0,0-.014.015,10.56,10.56,0,0,1,.948,1.7.344.344,0,0,0,.113.138,13.807,13.807,0,0,1,4.764,9.5m-15.427,9.536a15.991,15.991,0,0,1-12.187-6.163,15.291,15.291,0,0,1-3.288-9.619c0-.026,0-.026-.011,0a13.593,13.593,0,0,0-.527,5.024,12.891,12.891,0,0,0,8.781,10.82,14.493,14.493,0,0,0,9.68-.216c.03-.011.029-.014,0-.01a15.809,15.809,0,0,1-2.446.166Z" transform="translate(-1033.153 -1000.717)" fill="#fefefe"/>
</svg>
