<svg xmlns="http://www.w3.org/2000/svg" width="78.848" height="25" viewBox="0 0 78.848 25">
  <g id="Group_4" data-name="Group 4" transform="translate(1710.848 -32)">
    <path id="Path_3" data-name="Path 3" d="M1055.543,1012.8a11.414,11.414,0,0,1-8.919,8.708c-4.216.957-8.941-.236-11.641-3.8a9.5,9.5,0,0,1-1.331-8.686,12.129,12.129,0,0,1,6.974-7.386,12.764,12.764,0,0,1,14.458,3.489,12.48,12.48,0,0,1-12.021,20.086,11.925,11.925,0,0,1-8.554-6.4.015.015,0,0,1,0-.016c0-.007.009-.007.013,0a10.5,10.5,0,0,0,8.107,5.228,12.027,12.027,0,0,0,9.468-2.935,10.188,10.188,0,0,0,3.453-8.295c0-.014,0-.014-.006,0m-9.281-10.522a10.452,10.452,0,0,1,5.647,1.095c.023.012.024.01,0,0a10.972,10.972,0,0,0-10.464-.874,8.024,8.024,0,0,0-5.051,7.768q.009.2.075.763c0,.013,0,.013,0,0a8.077,8.077,0,0,1,1.059-3.34,11.4,11.4,0,0,1,8.729-5.408m-6.95,6.869a.016.016,0,0,1,0,.013,5.088,5.088,0,0,0,.636,4.948,6.768,6.768,0,0,0,5.517,2.677,7.565,7.565,0,0,0,6.89-4.5,6.429,6.429,0,0,0-.952-6.526c-2.321-2.7-6.571-2.911-9.5-1.123-.024.015-.023.018,0,.011a8.561,8.561,0,0,1,7.732,1.612,6.356,6.356,0,0,1,2.3,4.043.08.08,0,0,1,0,.047c-.007.016-.012.015-.015,0a5.163,5.163,0,0,0-.661-1.772c-1.569-2.583-4.8-3.7-7.7-3.413a7.4,7.4,0,0,0-6.671,5.474,4.189,4.189,0,0,0-.053,1.939,10.231,10.231,0,0,0,5.792,6.2,9.129,9.129,0,0,0,8.334-.56,8.872,8.872,0,0,0,4.351-6.1,2.77,2.77,0,0,0,.024-.969,6.638,6.638,0,0,0-1.275-2.754c-.008-.01-.01-.009-.008,0,1.359,6.013-4.774,10.63-10.314,9.1-3.644-1.009-6.116-4.607-4.435-8.335,0-.007.006-.007.01,0m17.593,4.454a5.187,5.187,0,0,1,.027.736q-.018.213.015.008,0-.008,0-.018a8.836,8.836,0,0,0-4.115-8.681.007.007,0,0,0-.01.01,7.4,7.4,0,0,1,.664,1.192.241.241,0,0,0,.079.1,9.674,9.674,0,0,1,3.338,6.656m-10.809,6.682a11.205,11.205,0,0,1-8.539-4.318,10.714,10.714,0,0,1-2.3-6.74c0-.018,0-.018-.008,0a9.525,9.525,0,0,0-.369,3.52,9.032,9.032,0,0,0,6.152,7.582,10.155,10.155,0,0,0,6.783-.152c.021-.008.021-.01,0-.007a11.075,11.075,0,0,1-1.714.116Z" transform="translate(-2744 -968.717)" fill="#fefefe"/>
    <text id="Nova" transform="translate(-1679 52)" fill="#fff" font-size="20" font-family="Albert Sans" font-weight="500"><tspan x="0" y="0">Nova</tspan></text>
  </g>
</svg>
