<svg xmlns="http://www.w3.org/2000/svg" width="102" height="102" viewBox="0 0 102 102">
  <g id="Group_147" data-name="Group 147" transform="translate(1156 -10665)">
    <circle id="Ellipse_5" data-name="Ellipse 5" cx="51" cy="51" r="51" transform="translate(-1156 10665)" fill="#161616"/>
    <path id="Path_4" data-name="Path 4" d="M1059.748,1015.073a13.558,13.558,0,0,1-10.594,10.344c-5.008,1.137-10.621-.28-13.828-4.51a11.284,11.284,0,0,1-1.582-10.318,14.406,14.406,0,0,1,8.284-8.773,15.162,15.162,0,0,1,17.174,4.144,14.825,14.825,0,0,1-14.279,23.859,14.165,14.165,0,0,1-10.161-7.6.018.018,0,0,1,0-.019c.005-.009.011-.009.015,0a12.466,12.466,0,0,0,9.629,6.21,14.286,14.286,0,0,0,11.246-3.486,12.1,12.1,0,0,0,4.1-9.853c0-.016,0-.016-.007,0m-11.025-12.5a12.415,12.415,0,0,1,6.707,1.3c.028.014.029.012,0,0a13.033,13.033,0,0,0-12.43-1.038c-3.735,1.692-6.2,5.036-6,9.227q.011.233.089.906c0,.015,0,.015,0,0a9.594,9.594,0,0,1,1.258-3.967,13.545,13.545,0,0,1,10.368-6.423m-8.256,8.159a.019.019,0,0,1,0,.015,6.044,6.044,0,0,0,.756,5.878,8.039,8.039,0,0,0,6.553,3.179,8.986,8.986,0,0,0,8.184-5.346,7.636,7.636,0,0,0-1.131-7.752c-2.757-3.2-7.8-3.458-11.284-1.333-.029.017-.027.022.005.013a10.169,10.169,0,0,1,9.184,1.915,7.55,7.55,0,0,1,2.728,4.8.1.1,0,0,1,0,.056c-.008.019-.015.018-.018,0a6.133,6.133,0,0,0-.785-2.105c-1.864-3.068-5.7-4.394-9.146-4.054a8.784,8.784,0,0,0-7.924,6.5,4.977,4.977,0,0,0-.063,2.3,12.154,12.154,0,0,0,6.88,7.36,10.844,10.844,0,0,0,9.9-.665,10.538,10.538,0,0,0,5.168-7.25,3.29,3.29,0,0,0,.029-1.151,7.885,7.885,0,0,0-1.515-3.271c-.009-.012-.012-.011-.009,0,1.614,7.142-5.67,12.627-12.252,10.8-4.328-1.2-7.264-5.473-5.268-9.9,0-.008.008-.008.012,0m20.9,5.29a6.174,6.174,0,0,1,.031.874c-.014.169-.008.172.018.01,0-.006,0-.013,0-.022a10.5,10.5,0,0,0-4.888-10.312.009.009,0,0,0-.012.012,8.788,8.788,0,0,1,.789,1.416.286.286,0,0,0,.094.115,11.492,11.492,0,0,1,3.965,7.906m-12.839,7.937a13.31,13.31,0,0,1-10.143-5.129,12.727,12.727,0,0,1-2.737-8.006c0-.021,0-.022-.009,0a11.315,11.315,0,0,0-.439,4.181,10.729,10.729,0,0,0,7.308,9.006,12.062,12.062,0,0,0,8.057-.18c.025-.009.024-.012,0-.008a13.144,13.144,0,0,1-2.035.138Z" transform="translate(-2153.152 9700.283)" fill="#fefefe"/>
  </g>
</svg>
