<svg xmlns="http://www.w3.org/2000/svg" width="21.51" height="20.507" viewBox="0 0 21.51 20.507">
  <g id="Group_146" data-name="Group 146" transform="translate(-301.25 -189.688)">
    <path id="Vector" d="M6,3A3,3,0,1,1,3,0,3,3,0,0,1,6,3Z" transform="translate(309 197)" fill="none" stroke="#fff" stroke-linecap="round" stroke-linejoin="round" stroke-width="1.5"/>
    <path id="Vector-2" data-name="Vector" d="M0,10.319V8.559a1.906,1.906,0,0,1,1.9-1.9c1.81,0,2.55-1.28,1.64-2.85a1.9,1.9,0,0,1,.7-2.59L5.97.229a1.669,1.669,0,0,1,2.28.6l.11.19c.9,1.57,2.38,1.57,3.29,0l.11-.19a1.669,1.669,0,0,1,2.28-.6l1.73.99a1.9,1.9,0,0,1,.7,2.59c-.91,1.57-.17,2.85,1.64,2.85a1.906,1.906,0,0,1,1.9,1.9v1.76a1.906,1.906,0,0,1-1.9,1.9c-1.81,0-2.55,1.28-1.64,2.85a1.9,1.9,0,0,1-.7,2.59l-1.73.99a1.669,1.669,0,0,1-2.28-.6l-.11-.19c-.9-1.57-2.38-1.57-3.29,0l-.11.19a1.669,1.669,0,0,1-2.28.6l-1.73-.99a1.9,1.9,0,0,1-.7-2.59c.91-1.57.17-2.85-1.64-2.85A1.906,1.906,0,0,1,0,10.319Z" transform="translate(302 190.561)" fill="none" stroke="#fff" stroke-linecap="round" stroke-linejoin="round" stroke-width="1.5"/>
  </g>
</svg>
