<svg xmlns="http://www.w3.org/2000/svg" width="17.396" height="14.129" viewBox="0 0 17.396 14.129">
  <path id="Icon_awesome-twitter" data-name="Icon awesome-twitter" d="M15.608,6.9c.011.155.011.309.011.464A10.075,10.075,0,0,1,5.475,17.51,10.075,10.075,0,0,1,0,15.909a7.376,7.376,0,0,0,.861.044A7.14,7.14,0,0,0,5.287,14.43a3.572,3.572,0,0,1-3.334-2.473,4.5,4.5,0,0,0,.673.055,3.771,3.771,0,0,0,.938-.121,3.566,3.566,0,0,1-2.859-3.5V8.348A3.591,3.591,0,0,0,2.318,8.8a3.571,3.571,0,0,1-1.1-4.769A10.134,10.134,0,0,0,8.566,7.763a4.025,4.025,0,0,1-.088-.817,3.569,3.569,0,0,1,6.17-2.439,7.02,7.02,0,0,0,2.263-.861A3.556,3.556,0,0,1,15.343,5.61,7.148,7.148,0,0,0,17.4,5.059,7.664,7.664,0,0,1,15.608,6.9Z" transform="translate(0 -3.381)" fill="#9a9ba0"/>
</svg>
